<svg width="21" height="11" viewBox="0 0 21 11" fill="none" xmlns="http://www.w3.org/2000/svg">
<path d="M2.68164 7.48047C2.40039 6.32031 2.15234 5.34961 1.9375 4.56836C1.72266 3.7832 1.55078 3.29492 1.42188 3.10352L0.835938 3.0625C0.722656 2.76562 0.642578 2.40039 0.595703 1.9668C0.662109 1.75195 0.787109 1.56641 0.970703 1.41016C1.1543 1.25 1.36914 1.12891 1.61523 1.04688C1.86133 0.964844 2.10938 0.923828 2.35938 0.923828C2.92969 0.923828 3.35547 1.18555 3.63672 1.70898C3.76562 1.94727 3.875 2.23438 3.96484 2.57031C4.05469 2.90234 4.13867 3.29688 4.2168 3.75391C4.3457 4.52344 4.43555 5.21484 4.48633 5.82812C4.53711 6.4375 4.57812 7.08594 4.60938 7.77344L4.63281 8.30078H4.7207C4.81836 8.08594 4.92578 7.62305 5.04297 6.91211C5.16016 6.20117 5.26172 5.44922 5.34766 4.65625C5.43359 3.85938 5.48047 3.26758 5.48828 2.88086L4.75 2.76953C4.69531 2.5625 4.66016 2.37695 4.64453 2.21289C4.62891 2.04883 4.62109 1.84961 4.62109 1.61523C4.70312 1.51367 4.83984 1.4082 5.03125 1.29883C5.22266 1.18945 5.44531 1.09766 5.69922 1.02344C5.95312 0.949219 6.20508 0.912109 6.45508 0.912109C6.79102 0.912109 7.09375 0.96875 7.36328 1.08203C7.63672 1.19141 7.85352 1.35547 8.01367 1.57422C8.17773 1.79297 8.26172 2.06055 8.26562 2.37695V3.2793C8.44141 3.96289 8.59375 4.76562 8.72266 5.6875C8.85547 6.60547 8.95312 7.47461 9.01562 8.29492H9.08008C9.17383 8.07617 9.2793 7.61133 9.39648 6.90039C9.51758 6.18555 9.62305 5.43359 9.71289 4.64453C9.80273 3.85156 9.84961 3.26367 9.85352 2.88086L9.16211 2.76953C9.10742 2.5625 9.07227 2.37695 9.05664 2.21289C9.04102 2.04883 9.0332 1.84961 9.0332 1.61523C9.11133 1.51367 9.24805 1.4082 9.44336 1.29883C9.63867 1.18945 9.86328 1.09766 10.1172 1.02344C10.375 0.949219 10.6289 0.912109 10.8789 0.912109C11.3906 0.912109 11.7734 1.04492 12.0273 1.31055C12.2812 1.57617 12.4082 1.98047 12.4082 2.52344C12.4082 3.03906 12.3223 3.70312 12.1504 4.51562C11.9785 5.32812 11.7637 6.0918 11.5059 6.80664C11.2832 7.43164 11.0645 7.97266 10.8496 8.42969C10.6348 8.88281 10.3691 9.32812 10.0527 9.76562C9.92383 9.89844 9.75391 9.99023 9.54297 10.041C9.33594 10.0918 9.12109 10.1172 8.89844 10.1172C8.12891 10.1172 7.56055 9.96875 7.19336 9.67188L7.35156 8.4707L6.9707 6.49609C6.88086 5.97656 6.82227 5.5625 6.79492 5.25391L6.71875 5.24805L6.70117 5.99219C6.57227 6.75781 6.41406 7.46875 6.22656 8.125C6.04297 8.77734 5.83203 9.32422 5.59375 9.76562C5.48047 9.89453 5.32422 9.98438 5.125 10.0352C4.92578 10.0898 4.72266 10.1172 4.51562 10.1172C3.71484 10.1172 3.15039 9.9707 2.82227 9.67773L2.95117 8.57617L2.68164 7.48047Z" fill="#242533"/>
<path d="M12.9238 5.57031C12.9238 2.46875 14.1426 0.917969 16.5801 0.917969C17.5449 0.917969 18.2969 1.11914 18.8359 1.52148C19.3789 1.91992 19.752 2.45898 19.9551 3.13867C20.1621 3.81445 20.2656 4.625 20.2656 5.57031C20.2656 6.96094 19.9805 8.06641 19.4102 8.88672C18.8398 9.70703 17.8965 10.1172 16.5801 10.1172C15.2559 10.1172 14.3145 9.71094 13.7559 8.89844C13.2012 8.08594 12.9238 6.97656 12.9238 5.57031ZM16.873 8.24805C17.1934 8.24805 17.377 8.23047 17.4238 8.19531C17.5215 8.02344 17.5957 7.72461 17.6465 7.29883C17.6973 6.86914 17.7227 6.38867 17.7227 5.85742C17.7227 5.29883 17.6953 4.78125 17.6406 4.30469C17.5898 3.82422 17.5176 3.48828 17.4238 3.29688C17.3262 3.21875 17.1816 3.16016 16.9902 3.12109C16.7988 3.08203 16.5879 3.06055 16.3574 3.05664C16.2246 3.05664 16.1035 3.06445 15.9941 3.08008C15.8887 3.0918 15.8125 3.11133 15.7656 3.13867C15.6523 3.33398 15.5684 3.61719 15.5137 3.98828C15.4629 4.35547 15.4375 4.77539 15.4375 5.24805C15.4375 5.7832 15.4668 6.31641 15.5254 6.84766C15.584 7.37891 15.6562 7.78516 15.7422 8.06641C15.7969 8.125 15.9355 8.16992 16.1582 8.20117C16.3809 8.23242 16.6191 8.24805 16.873 8.24805Z" fill="#E19B2C"/>
</svg>
